<svg width="868" height="668" viewBox="0 0 868 668" fill="none" xmlns="http://www.w3.org/2000/svg">
<path d="M200 153C200 153 243.487 124.34 276.5 108.5C316.679 89.221 371 73 411.5 85C426.827 89.5412 437.182 96.578 445.5 105.12C445.5 105.12 463.881 92.8155 474.5 83.5C486.648 72.8435 500.5 53.5 503 53.5C507.85 53.5 512.346 59.9405 515 64C523.5 77 519.639 93.7212 511.5 110C506.5 120 491.5 138 484 145.5C480.398 149.102 478.257 148.767 477.115 147.907C478.965 150.27 480.916 152.638 483 155C528 206 608.5 251.5 618 269.5C627.5 287.5 626 302.5 618 314.5C610 326.5 620 343.5 603.5 360.5C591.242 373.13 582.366 374 567.5 374C557.5 374 545.858 390.426 527.5 393C508.959 395.6 491.428 393.5 474.5 385.5C456.5 376.993 434.863 362.127 414 366.5C404.253 368.543 410.5 372 410.5 372C410.5 372 399.939 442.742 375 480C374.779 480.329 374.399 480.323 373.868 480L304.5 461.5L224 393L197 337L180 283L182 204L200 153Z" fill="#3198A5"/>
<path d="M567.5 374C582.366 374 591.242 373.13 603.5 360.5C620 343.5 610 326.5 618 314.5C626 302.5 627.5 287.5 618 269.5C608.5 251.5 528 206 483 155C480.502 152.169 478.195 149.33 476.026 146.5M567.5 374C557.5 374 545.858 390.426 527.5 393C508.959 395.6 491.428 393.5 474.5 385.5C456.5 376.993 434.863 362.127 414 366.5C404.253 368.543 410.5 372 410.5 372C410.5 372 399.939 442.742 375 480C374.779 480.329 374.399 480.323 373.868 480L304.5 461.5L224 393L197 337L180 283L182 204L200 153C200 153 243.487 124.34 276.5 108.5C316.679 89.221 371 73 411.5 85C426.827 89.5412 437.182 96.578 445.5 105.12M567.5 374C567.5 374 553.815 361.365 542 356.5C531.608 352.22 524 351.5 513 350C497.765 347.922 489.611 344.528 475.5 338C455.321 328.665 433.5 302 433.5 302M445.5 105.12C445.5 105.12 463.881 92.8155 474.5 83.5C486.648 72.8435 500.5 53.5 503 53.5C507.85 53.5 512.346 59.9405 515 64C523.5 77 519.639 93.7212 511.5 110C506.5 120 491.5 138 484 145.5C477.955 151.545 476.026 146.5 476.026 146.5M445.5 105.12C456.984 116.913 464.585 131.575 476.026 146.5" stroke="#002D3C" stroke-width="12"/>
<circle cx="421" cy="250" r="240" stroke="#002D3C" stroke-width="20"/>
<path d="M343.5 138.5L319 142L311.5 138.5L291 116.5L286 93.5L288.5 73V52L313.5 33L335 45.5L349.5 63.5L357 96.5L343.5 138.5Z" fill="#3198A5"/>
<path d="M310.307 129.959C318.134 137.754 331 143.783 331 143.783C331 143.783 320.866 146.67 313.491 143.783C305.381 140.609 301.957 136.301 295.979 129.959C287.925 121.414 285.417 116.406 282.713 104.969C279.827 92.764 281.121 83.7012 282.713 69.3455C284.011 57.6404 289.081 39.0388 289.081 39.0388L308.184 30C308.184 30 320.262 31.6531 327.288 34.7853C338.706 39.8756 344.708 45.1404 351.697 55.5214C358.881 66.191 360.837 74.0558 361.78 86.8914C362.593 97.9619 361.108 104.398 358.065 115.071C356.173 121.708 355.716 125.948 351.697 131.554C348.012 136.694 339.492 142.188 339.492 142.188C339.492 142.188 345.878 124.979 347.983 113.476C350.268 100.991 351.697 92.7401 350.106 81.0428C348.295 67.7407 342.074 56.8983 331.533 48.6093C321.839 40.9865 308.184 36.912 302.347 41.1656C299.449 43.2772 295.67 52.051 293.857 64.5602C292.721 72.3928 292.331 84.8389 292.795 92.7401C293.204 99.6925 293.467 103.792 295.979 110.286C299.379 119.076 303.501 123.181 310.129 129.782L310.307 129.959Z" fill="#002D3C"/>
<path d="M307.357 97.0303C311.932 111.173 329.676 128 329.676 128C329.676 128 340.44 96.885 337.487 83.2045C334.005 67.0692 312.379 55 312.379 55C312.379 55 302.463 81.9035 307.357 97.0303Z" fill="#002D3C"/>
<path d="M504.5 176C504.5 176 495 182 494 192.5C493 203 497.932 207.121 506 212.5C519.5 221.5 531.5 218 543 218L547.5 213.5C554.252 197.331 555.254 187.935 557 170.5C558.812 152.405 558.5 124.5 554.5 124C550.5 123.5 541.861 148.536 529 160C520.47 167.604 504.5 176 504.5 176Z" fill="#3198A5"/>
<path d="M543 218C543 235 549.299 247.73 565 258.5C578.527 267.78 588.536 270.974 604 265.5C619.242 260.104 624.09 251.81 632.5 238C644.694 217.975 649 180 649 180C649 180 649.87 140.344 645.5 115.5C639.852 83.3894 623 31.5 618.5 36.5C614 41.5 616.914 78.3552 610.5 103C603.766 128.875 599.734 143.227 587.5 167C579.619 182.314 576.292 191.048 564 202C558.136 207.225 554.334 210.181 547.5 213.5L543 218Z" fill="#3198A5"/>
<path d="M543 218C531.5 218 519.5 221.5 506 212.5C497.932 207.121 493 203 494 192.5C495 182 504.5 176 504.5 176C504.5 176 520.47 167.604 529 160C541.861 148.536 550.5 123.5 554.5 124C558.5 124.5 558.812 152.405 557 170.5C555.254 187.935 554.252 197.331 547.5 213.5M543 218C543 235 549.299 247.73 565 258.5C578.527 267.78 588.536 270.974 604 265.5C619.242 260.104 624.09 251.81 632.5 238C644.694 217.975 649 180 649 180C649 180 649.87 140.344 645.5 115.5C639.852 83.3894 623 31.5 618.5 36.5C614 41.5 616.914 78.3552 610.5 103C603.766 128.875 599.734 143.227 587.5 167C579.619 182.314 576.292 191.048 564 202C558.136 207.225 554.334 210.181 547.5 213.5M543 218C544.757 216.243 545.743 215.257 547.5 213.5M543 218L547.5 213.5" stroke="#002D3C" stroke-width="12"/>
<path d="M560.5 314C561.597 317.97 561.5 324.5 561.5 324.5C561.5 324.5 557.821 318.195 554.5 315C551.883 312.482 547 309.5 547 309.5C547 309.5 541.93 315.235 537.5 316C533.989 316.606 531.531 316.374 528.5 314.5C525.275 312.507 523.508 310.257 523 306.5C522.503 302.829 523.113 300.688 525 297.5C526.887 294.312 528.961 292.68 532.5 291.5C537 290 541 290.5 544 292.5C548.023 295.182 551.024 298.19 554 302C557.28 306.201 559.08 308.863 560.5 314Z" fill="#002D3C"/>
<path d="M527 282.5C519.779 282.743 509.5 288.5 509.5 288.5C509.5 288.5 512.217 282.394 515.5 280C519.25 277.266 522.359 276.494 527 276.5C531.215 276.505 533.959 277.213 537.5 279.5C540.524 281.454 543.5 286.5 543.5 286.5C543.5 286.5 533.627 282.277 527 282.5Z" fill="#002D3C"/>
<path d="M609 325L616 319V315C616 315 611.681 309.875 610 306C607.943 301.257 607.5 293 607.5 293C607.5 293 602 306 603.5 310.5C605 315 609 325 609 325Z" fill="#002D3C"/>
<path d="M407 236.5C401.819 234.414 395.5 228 395.5 228C395.5 228 398.047 235.278 401.5 238.5C404.565 241.36 406.892 242.663 411 243.5C415.227 244.362 418.076 244.292 422 242.5C425.275 241.004 429 236.5 429 236.5C429 236.5 423.287 238.315 419.5 238.5C414.562 238.741 411.586 238.346 407 236.5Z" fill="#002D3C"/>
<path d="M412.188 173.052C419.222 172.267 429.828 175.363 429.828 175.363C429.828 175.363 423.095 169.198 417.447 167.803C412.434 166.565 409.084 166.534 403.934 168.013C398.636 169.533 395.405 171.241 391.844 175.368C388.872 178.813 386.961 185.667 386.961 185.667C386.961 185.667 392.561 180.49 396.807 178.125C402.342 175.041 405.962 173.748 412.188 173.052Z" fill="#002D3C"/>
<path fill-rule="evenodd" clip-rule="evenodd" d="M404 210C404 210 404 217 404 219C404 221 405.054 224.017 407 226.5C409.171 229.271 411.171 230.357 414.5 231.5C418.748 232.958 421.898 233.328 426 231.5C429.912 229.757 431.736 227.402 433.5 223.5C434.573 221.126 434.654 219.582 435 217C435.493 213.323 435.95 211.086 435 207.5C434.15 204.291 433.278 202.415 431 200C428.656 197.515 426.694 196.711 423.5 195.5C421.064 194.577 419.602 194.132 417 194C413.214 193.808 410.773 194.086 407.5 196C405.47 197.187 404.62 198.296 403 200C400.2 202.945 397 208.5 397 208.5H404V210ZM425.5 203.5C423.492 202.277 421.704 202.18 419.5 203C414.892 204.714 415.166 211.483 418 215.5C419.038 216.971 419.77 218.002 421.5 218.5C423.414 219.051 424.839 218.598 426.5 217.5C428.399 216.244 429.17 214.753 429.5 212.5C429.789 210.53 429.317 209.316 428.5 207.5C427.699 205.719 427.168 204.515 425.5 203.5Z" fill="#002D3C"/>
<path d="M428.601 296.015C433.895 292.251 438.85 294.588 445 296.371L434.627 301.605L422 311C422 311 424.063 299.24 428.601 296.015Z" fill="#002D3C"/>
<path d="M377.921 440.5C372.882 458.052 358.421 483 358.421 483L371.421 487L391.421 444L405.921 391.5L407.421 371L426.921 360.5C426.921 360.5 403.314 359.742 391.421 357.5C374.788 354.364 364.296 354.077 348.921 347C335.475 340.811 331.238 336.613 320.921 326C310.048 314.816 305.812 307.228 299.421 293C291.653 275.708 284.921 246 284.921 246C284.921 246 283.921 282.5 290.421 301C296.921 319.5 301.921 331 314.421 347C314.421 347 284.439 317.103 273.421 296C266.076 281.933 263.323 274.246 258.921 259C255.347 246.624 254.03 238.28 252.421 225.5C250.738 212.132 250 195 250 195C250 195 247.139 205.633 246.5 215C245.579 228.5 245.046 235.302 246.5 248.5C248.794 269.322 253.407 282 260.921 301C267.729 318.215 271.378 325.641 282.421 340.5C298.082 361.574 334.921 382.5 334.921 382.5C330.339 412.5 320.724 434 299.724 456.5L309.384 463C309.384 463 328.671 445.25 335.421 435.5C342.171 425.75 357.5 401.5 357.5 401.5C357.5 423 357.5 427.5 341 459.5C341 459.5 362 439.5 368.5 428.5C375 417.5 383.921 401.5 383.921 401.5C383.921 401.5 382.173 425.689 377.921 440.5Z" fill="#002D3C"/>
<path d="M214.5 251C211.935 232 216.355 219 221.5 202.5C221.5 202.5 221.754 233.915 224 251C226.245 268.085 233.645 294 233.645 294C222.645 281 216.858 268.464 214.5 251Z" fill="#002D3C"/>
<path d="M288 163C282.169 181.644 285 214 285 214C285 214 292.231 177.106 300.5 156C303.596 148.098 309 136 309 136L307 128L300.5 132C300.5 132 291.884 150.579 288 163Z" fill="#002D3C"/>
<path d="M22.6278 639H2.85511L32.983 551.727H56.7614L86.8466 639H67.0739L45.2131 571.67H44.5312L22.6278 639ZM21.392 604.696H68.0966V619.099H21.392V604.696ZM151.257 551.727H169.709V608.403C169.709 614.767 168.189 620.335 165.149 625.108C162.138 629.881 157.919 633.602 152.493 636.273C147.067 638.915 140.746 640.236 133.53 640.236C126.286 640.236 119.95 638.915 114.524 636.273C109.098 633.602 104.879 629.881 101.868 625.108C98.8565 620.335 97.3509 614.767 97.3509 608.403V551.727H115.803V606.827C115.803 610.151 116.527 613.105 117.976 615.69C119.453 618.276 121.527 620.307 124.197 621.784C126.868 623.261 129.979 624 133.53 624C137.109 624 140.22 623.261 142.862 621.784C145.533 620.307 147.592 618.276 149.041 615.69C150.518 613.105 151.257 610.151 151.257 606.827V551.727ZM181.566 566.94V551.727H253.242V566.94H226.523V639H208.285V566.94H181.566ZM612.976 576.827C612.635 573.389 611.172 570.719 608.587 568.815C606.001 566.912 602.493 565.96 598.061 565.96C595.05 565.96 592.507 566.386 590.433 567.239C588.359 568.062 586.768 569.213 585.661 570.69C584.581 572.168 584.041 573.844 584.041 575.719C583.984 577.281 584.311 578.645 585.021 579.81C585.76 580.974 586.768 581.983 588.047 582.835C589.325 583.659 590.803 584.384 592.479 585.009C594.155 585.605 595.945 586.116 597.848 586.543L605.689 588.418C609.496 589.27 612.99 590.406 616.172 591.827C619.354 593.247 622.109 594.994 624.439 597.068C626.768 599.142 628.572 601.585 629.851 604.398C631.158 607.21 631.825 610.435 631.854 614.071C631.825 619.412 630.462 624.043 627.763 627.963C625.092 631.855 621.229 634.881 616.172 637.04C611.143 639.17 605.078 640.236 597.976 640.236C590.93 640.236 584.794 639.156 579.567 636.997C574.368 634.838 570.305 631.642 567.379 627.409C564.482 623.148 562.962 617.878 562.82 611.599H580.675C580.874 614.526 581.712 616.969 583.189 618.929C584.695 620.861 586.697 622.324 589.197 623.318C591.726 624.284 594.581 624.767 597.763 624.767C600.888 624.767 603.601 624.312 605.902 623.403C608.232 622.494 610.036 621.23 611.314 619.611C612.592 617.991 613.232 616.131 613.232 614.028C613.232 612.068 612.649 610.42 611.484 609.085C610.348 607.75 608.672 606.614 606.456 605.676C604.268 604.739 601.584 603.886 598.402 603.119L588.899 600.733C581.541 598.943 575.732 596.145 571.47 592.338C567.209 588.531 565.092 583.403 565.121 576.955C565.092 571.67 566.499 567.054 569.339 563.105C572.209 559.156 576.143 556.074 581.143 553.858C586.143 551.642 591.825 550.534 598.189 550.534C604.666 550.534 610.32 551.642 615.149 553.858C620.007 556.074 623.786 559.156 626.484 563.105C629.183 567.054 630.575 571.628 630.661 576.827H612.976ZM662.717 551.727V639H644.265V551.727H662.717Z" fill="#3198A5"/>
<path d="M282.859 601.159V639H264.705V551.727H282.347V585.094H283.114C284.592 581.23 286.978 578.205 290.273 576.017C293.569 573.801 297.702 572.693 302.674 572.693C307.219 572.693 311.183 573.688 314.563 575.676C317.972 577.636 320.614 580.463 322.489 584.156C324.393 587.821 325.33 592.21 325.302 597.324V639H307.148V600.562C307.177 596.528 306.154 593.389 304.08 591.145C302.035 588.901 299.165 587.778 295.472 587.778C293.001 587.778 290.813 588.304 288.91 589.355C287.035 590.406 285.558 591.94 284.478 593.957C283.427 595.946 282.887 598.347 282.859 601.159ZM369.418 640.278C362.685 640.278 356.889 638.915 352.031 636.188C347.202 633.432 343.48 629.54 340.866 624.511C338.253 619.455 336.946 613.474 336.946 606.571C336.946 599.838 338.253 593.929 340.866 588.844C343.48 583.759 347.159 579.795 351.903 576.955C356.676 574.114 362.273 572.693 368.693 572.693C373.011 572.693 377.031 573.389 380.753 574.781C384.503 576.145 387.77 578.205 390.554 580.96C393.366 583.716 395.554 587.182 397.116 591.358C398.679 595.506 399.46 600.364 399.46 605.932V610.918H344.19V599.668H382.372C382.372 597.054 381.804 594.739 380.668 592.722C379.531 590.705 377.955 589.128 375.938 587.991C373.949 586.827 371.634 586.244 368.991 586.244C366.236 586.244 363.793 586.884 361.662 588.162C359.56 589.412 357.912 591.102 356.719 593.233C355.526 595.335 354.915 597.679 354.886 600.264V610.96C354.886 614.199 355.483 616.997 356.676 619.355C357.898 621.713 359.616 623.531 361.832 624.81C364.048 626.088 366.676 626.727 369.716 626.727C371.733 626.727 373.58 626.443 375.256 625.875C376.932 625.307 378.366 624.455 379.56 623.318C380.753 622.182 381.662 620.79 382.287 619.142L399.077 620.25C398.224 624.284 396.477 627.807 393.835 630.818C391.222 633.801 387.841 636.131 383.693 637.807C379.574 639.455 374.815 640.278 369.418 640.278ZM429.46 601.159V639H411.307V573.545H428.608V585.094H429.375C430.824 581.287 433.253 578.276 436.662 576.06C440.071 573.815 444.205 572.693 449.062 572.693C453.608 572.693 457.571 573.688 460.952 575.676C464.332 577.665 466.96 580.506 468.835 584.199C470.71 587.864 471.648 592.239 471.648 597.324V639H453.494V600.562C453.523 596.557 452.5 593.432 450.426 591.188C448.352 588.915 445.497 587.778 441.861 587.778C439.418 587.778 437.259 588.304 435.384 589.355C433.537 590.406 432.088 591.94 431.037 593.957C430.014 595.946 429.489 598.347 429.46 601.159ZM520.771 573.545V587.182H481.353V573.545H520.771ZM490.302 557.864H508.455V618.886C508.455 620.562 508.711 621.869 509.222 622.807C509.734 623.716 510.444 624.355 511.353 624.724C512.29 625.094 513.37 625.278 514.592 625.278C515.444 625.278 516.296 625.207 517.148 625.065C518.001 624.895 518.654 624.767 519.109 624.682L521.964 638.19C521.055 638.474 519.776 638.801 518.129 639.17C516.481 639.568 514.478 639.81 512.12 639.895C507.745 640.065 503.91 639.483 500.614 638.148C497.347 636.812 494.805 634.739 492.987 631.926C491.168 629.114 490.273 625.562 490.302 621.273V557.864ZM532.596 639V573.545H550.749V639H532.596ZM541.715 565.108C539.016 565.108 536.701 564.213 534.769 562.423C532.866 560.605 531.914 558.432 531.914 555.903C531.914 553.403 532.866 551.259 534.769 549.469C536.701 547.651 539.016 546.741 541.715 546.741C544.414 546.741 546.715 547.651 548.619 549.469C550.55 551.259 551.516 553.403 551.516 555.903C551.516 558.432 550.55 560.605 548.619 562.423C546.715 564.213 544.414 565.108 541.715 565.108ZM712.372 573.545V587.182H672.955V573.545H712.372ZM681.903 557.864H700.057V618.886C700.057 620.562 700.313 621.869 700.824 622.807C701.335 623.716 702.045 624.355 702.955 624.724C703.892 625.094 704.972 625.278 706.193 625.278C707.045 625.278 707.898 625.207 708.75 625.065C709.602 624.895 710.256 624.767 710.71 624.682L713.565 638.19C712.656 638.474 711.378 638.801 709.73 639.17C708.082 639.568 706.08 639.81 703.722 639.895C699.347 640.065 695.511 639.483 692.216 638.148C688.949 636.812 686.406 634.739 684.588 631.926C682.77 629.114 681.875 625.562 681.903 621.273V557.864ZM753.324 640.278C746.591 640.278 740.795 638.915 735.938 636.188C731.108 633.432 727.386 629.54 724.773 624.511C722.159 619.455 720.852 613.474 720.852 606.571C720.852 599.838 722.159 593.929 724.773 588.844C727.386 583.759 731.065 579.795 735.81 576.955C740.582 574.114 746.179 572.693 752.599 572.693C756.918 572.693 760.938 573.389 764.659 574.781C768.409 576.145 771.676 578.205 774.46 580.96C777.273 583.716 779.46 587.182 781.023 591.358C782.585 595.506 783.366 600.364 783.366 605.932V610.918H728.097V599.668H766.278C766.278 597.054 765.71 594.739 764.574 592.722C763.438 590.705 761.861 589.128 759.844 587.991C757.855 586.827 755.54 586.244 752.898 586.244C750.142 586.244 747.699 586.884 745.568 588.162C743.466 589.412 741.818 591.102 740.625 593.233C739.432 595.335 738.821 597.679 738.793 600.264V610.96C738.793 614.199 739.389 616.997 740.582 619.355C741.804 621.713 743.523 623.531 745.739 624.81C747.955 626.088 750.582 626.727 753.622 626.727C755.639 626.727 757.486 626.443 759.162 625.875C760.838 625.307 762.273 624.455 763.466 623.318C764.659 622.182 765.568 620.79 766.193 619.142L782.983 620.25C782.131 624.284 780.384 627.807 777.741 630.818C775.128 633.801 771.747 636.131 767.599 637.807C763.48 639.455 758.722 640.278 753.324 640.278ZM795.213 639V573.545H813.366V639H795.213ZM804.332 565.108C801.634 565.108 799.318 564.213 797.386 562.423C795.483 560.605 794.531 558.432 794.531 555.903C794.531 553.403 795.483 551.259 797.386 549.469C799.318 547.651 801.634 546.741 804.332 546.741C807.031 546.741 809.332 547.651 811.236 549.469C813.168 551.259 814.134 553.403 814.134 555.903C814.134 558.432 813.168 560.605 811.236 562.423C809.332 564.213 807.031 565.108 804.332 565.108ZM862.724 573.545V587.182H823.306V573.545H862.724ZM832.255 557.864H850.408V618.886C850.408 620.562 850.664 621.869 851.175 622.807C851.687 623.716 852.397 624.355 853.306 624.724C854.244 625.094 855.323 625.278 856.545 625.278C857.397 625.278 858.249 625.207 859.102 625.065C859.954 624.895 860.607 624.767 861.062 624.682L863.917 638.19C863.008 638.474 861.729 638.801 860.082 639.17C858.434 639.568 856.431 639.81 854.073 639.895C849.698 640.065 845.863 639.483 842.567 638.148C839.3 636.812 836.758 634.739 834.94 631.926C833.121 629.114 832.227 625.562 832.255 621.273V557.864Z" fill="#002D3C"/>
</svg>
