<svg width="508" height="1888" viewBox="0 0 508 1888" fill="none" xmlns="http://www.w3.org/2000/svg">
<rect x="241" y="408" width="31" height="1350" fill="#3198A5"/>
<path d="M295 340.5L258 495.5L214.5 340.5L103 390.5L160 285L1 243.5L160 198.5L103 89L214.5 145.5L258 0L295 145.5L408.5 89L345.5 198.5L508 243.5L345.5 285L408.5 400.5L295 340.5Z" fill="#3198A5"/>
<path d="M270.233 200.909V294H250.551V219.591H250.006L228.688 232.955V215.5L251.733 200.909H270.233Z" fill="white"/>
<path d="M294 1036.5L257 1191.5L213.5 1036.5L102 1086.5L159 981L0 939.5L159 894.5L102 785L213.5 841.5L257 696L294 841.5L407.5 785L344.5 894.5L507 939.5L344.5 981L407.5 1096.5L294 1036.5Z" fill="#3198A5"/>
<path d="M219.733 990V975.818L252.869 945.136C255.688 942.409 258.051 939.955 259.96 937.773C261.9 935.591 263.369 933.455 264.369 931.364C265.369 929.242 265.869 926.955 265.869 924.5C265.869 921.773 265.248 919.424 264.006 917.455C262.763 915.455 261.066 913.924 258.915 912.864C256.763 911.773 254.324 911.227 251.597 911.227C248.748 911.227 246.263 911.803 244.142 912.955C242.021 914.106 240.384 915.758 239.233 917.909C238.081 920.061 237.506 922.621 237.506 925.591H218.824C218.824 919.5 220.203 914.212 222.96 909.727C225.718 905.242 229.581 901.773 234.551 899.318C239.521 896.864 245.248 895.636 251.733 895.636C258.4 895.636 264.203 896.818 269.142 899.182C274.112 901.515 277.975 904.758 280.733 908.909C283.491 913.061 284.869 917.818 284.869 923.182C284.869 926.697 284.172 930.167 282.778 933.591C281.415 937.015 278.975 940.818 275.46 945C271.945 949.152 266.991 954.136 260.597 959.955L247.006 973.273V973.909H286.097V990H219.733Z" fill="white"/>
<path d="M294 1732.5L257 1887.5L213.5 1732.5L102 1782.5L159 1677L0 1635.5L159 1590.5L102 1481L213.5 1537.5L257 1392L294 1537.5L407.5 1481L344.5 1590.5L507 1635.5L344.5 1677L407.5 1792.5L294 1732.5Z" fill="#3198A5"/>
<path d="M252.267 1687.27C245.479 1687.27 239.434 1686.11 234.131 1683.77C228.858 1681.41 224.691 1678.17 221.631 1674.05C218.6 1669.89 217.04 1665.11 216.949 1659.68H236.767C236.888 1661.95 237.631 1663.95 238.994 1665.68C240.388 1667.38 242.237 1668.7 244.54 1669.64C246.843 1670.58 249.434 1671.05 252.312 1671.05C255.312 1671.05 257.964 1670.52 260.267 1669.45C262.57 1668.39 264.373 1666.92 265.676 1665.05C266.979 1663.17 267.631 1661 267.631 1658.55C267.631 1656.06 266.934 1653.86 265.54 1651.95C264.176 1650.02 262.206 1648.5 259.631 1647.41C257.085 1646.32 254.055 1645.77 250.54 1645.77H241.858V1631.32H250.54C253.509 1631.32 256.131 1630.8 258.403 1629.77C260.706 1628.74 262.494 1627.32 263.767 1625.5C265.04 1623.65 265.676 1621.5 265.676 1619.05C265.676 1616.71 265.116 1614.67 263.994 1612.91C262.903 1611.12 261.358 1609.73 259.358 1608.73C257.388 1607.73 255.085 1607.23 252.449 1607.23C249.782 1607.23 247.343 1607.71 245.131 1608.68C242.919 1609.62 241.146 1610.97 239.812 1612.73C238.479 1614.48 237.767 1616.55 237.676 1618.91H218.812C218.903 1613.55 220.434 1608.82 223.403 1604.73C226.373 1600.64 230.373 1597.44 235.403 1595.14C240.464 1592.8 246.176 1591.64 252.54 1591.64C258.964 1591.64 264.585 1592.8 269.403 1595.14C274.222 1597.47 277.964 1600.62 280.631 1604.59C283.328 1608.53 284.661 1612.95 284.631 1617.86C284.661 1623.08 283.04 1627.42 279.767 1630.91C276.525 1634.39 272.297 1636.61 267.085 1637.55V1638.27C273.934 1639.15 279.146 1641.53 282.722 1645.41C286.328 1649.26 288.116 1654.08 288.085 1659.86C288.116 1665.17 286.585 1669.88 283.494 1674C280.434 1678.12 276.206 1681.36 270.812 1683.73C265.419 1686.09 259.237 1687.27 252.267 1687.27Z" fill="white"/>
</svg>
